<?xml version="1.0" encoding="utf-8"?>
<!-- Generator: Adobe Illustrator 16.0.0, SVG Export Plug-In . SVG Version: 6.00 Build 0)  -->
<!DOCTYPE svg PUBLIC "-//W3C//DTD SVG 1.1//EN" "http://www.w3.org/Graphics/SVG/1.1/DTD/svg11.dtd">
<svg version="1.1" id="Layer_1" xmlns="http://www.w3.org/2000/svg" xmlns:xlink="http://www.w3.org/1999/xlink" x="0px" y="0px"
	 width="100px" height="100px" viewBox="0 0 100 100" enable-background="new 0 0 100 100" xml:space="preserve">
<g>
	<path fill="#1B75BB" d="M14.116,59.699c-0.485-1.655-0.875-3.329-1.198-5.032c10.681-5.06,21.439-9.949,32.092-15.048
		c0.181-1.863,1.104-3.756,2.796-4.698c2.549-1.588,5.992-0.685,7.714,1.702c0.752,1.446,1.209,3.159,0.676,4.766
		c-0.685,2.768-3.709,4.604-6.487,4.015c-1.237-0.096-2.188-1.304-3.472-0.657l0,0C35.518,49.692,24.827,54.706,14.116,59.699z"/>
	<path fill="#1B75BB" d="M36.831,55.162c0.229-1.531,0.742-3.12,1.998-4.128c2.377-2.178,6.591-1.769,8.408,0.94
		c2.006,2.626,1.046,6.878-1.941,8.334c-1.997,1.141-4.489,0.675-6.344-0.533c-4.1,1.97-8.218,3.861-12.327,5.773
		c0.114,0.189,0.343,0.57,0.457,0.762c2.71,3.547,6.192,6.448,10.073,8.626c5.859,2.939,12.67,4.052,19.138,2.759
		c7.552-1.407,14.448-5.936,18.775-12.279c4.385-6.259,6.136-14.258,4.852-21.782c-0.971-5.603-3.625-10.806-7.372-15.066
		c-2.806-2.788-5.982-5.279-9.616-6.896c-2.911-1.304-6.012-2.102-9.16-2.521c-3.281-0.257-6.61-0.076-9.807,0.685
		c-7.209,1.646-13.602,6.221-17.768,12.309c-1.351,2.063-2.445,4.281-3.329,6.591c3.367-1.237,6.516-2.987,9.797-4.424
		c0.019-3.547,3.643-6.534,7.133-5.535c3.538,0.713,5.479,5.184,3.614,8.275c-1.569,2.996-5.745,3.806-8.427,1.826
		c-9.417,4.355-18.815,8.779-28.269,13.068c0.019-2.254,0-4.518,0.019-6.78c0.799,0,1.598,0,2.397,0
		c0.134-0.677,0.01-1.437,0.305-2.065c0.048-0.456,0.133-1.359,0.171-1.797c-0.761-0.237-1.541-0.466-2.331-0.686
		c0.562-2.254,1.189-4.489,1.779-6.734c0.79,0.162,1.57,0.362,2.34,0.58c0.38-0.817,0.628-1.712,1.16-2.435
		c0.057-0.313,0.19-0.932,0.257-1.236c-0.675-0.372-1.36-0.751-2.045-1.123c1.198-2.016,2.377-4.042,3.5-6.087
		c0.761,0.371,1.493,0.761,2.226,1.161c0.723-1.066,1.493-2.083,2.302-3.072c-0.561-0.571-1.122-1.142-1.693-1.693
		c1.637-1.703,3.292-3.367,4.984-4.984c0.562,0.58,1.123,1.141,1.674,1.721c1.018-0.837,2.074-1.617,3.082-2.454
		c-0.428-0.676-0.837-1.37-1.208-2.083c2.083-0.999,3.929-2.416,6.031-3.339c0.666,0.391,0.809,1.285,1.198,1.903
		c1.284-0.323,2.483-0.904,3.672-1.456c-0.2-0.78-0.409-1.55-0.6-2.321c2.283-0.562,4.547-1.246,6.83-1.817
		c0.171,0.742,0.352,1.484,0.514,2.216c0.666-0.009,1.322-0.028,1.978-0.047V7.232c0.657-0.057,1.313-0.114,1.959-0.181
		c0-0.828,0-1.646,0-2.473c2.321,0,4.661,0,6.981-0.028c0.01,0.818,0,1.626,0,2.454c1.313,0.152,2.626,0.323,3.938,0.476
		c0.19-0.771,0.38-1.541,0.561-2.312c2.313,0.552,4.575,1.228,6.878,1.779c-0.124,0.504-0.267,1.008-0.438,1.502
		c-0.048,0.238-0.144,0.713-0.19,0.951c1.208,0.399,2.388,0.914,3.557,1.417c0.381-0.704,0.781-1.408,1.189-2.112
		c2.045,1.151,4.09,2.331,6.135,3.491c-0.428,0.799-0.865,1.588-1.303,2.378l0.466,0.066c0.913,0.638,1.788,1.341,2.663,2.017
		c0.59-0.59,1.199-1.17,1.808-1.712c1.637,1.674,3.311,3.329,4.983,4.965c-0.455,0.761-2.073,1.389-1.35,2.369
		c0.685,0.808,1.313,1.646,1.979,2.473c0.675-0.409,1.351-0.809,2.017-1.208c1.273,1.998,2.388,4.08,3.596,6.117
		c-0.705,0.398-1.408,0.788-2.131,1.169c0.466,1.208,0.988,2.407,1.484,3.605c0.855-0.048,2.11-1.103,2.663-0.037l-0.191,0.095
		c0.646,2.017,1.104,4.09,1.713,6.116c-0.781,0.229-1.561,0.446-2.359,0.646c0.172,1.313,0.343,2.615,0.494,3.928
		c0.818-0.009,1.637-0.018,2.455-0.018c0,2.33-0.02,4.65,0,6.98c-0.818,0.009-1.617-0.009-2.436-0.009
		c-0.171,1.293-0.342,2.577-0.532,3.871c0.78,0.189,1.568,0.398,2.35,0.609c-0.57,2.282-1.199,4.546-1.817,6.819
		c-0.78-0.21-1.579-0.428-2.378-0.628c-0.446,1.198-0.942,2.397-1.465,3.586c0.723,0.399,1.428,0.799,2.131,1.198
		c-1.171,2.046-2.359,4.09-3.52,6.126c-0.665-0.381-1.342-0.79-2.036-1.132c-0.951,0.864-1.598,2.035-2.443,2.996
		c0.58,0.58,1.15,1.169,1.701,1.787c-1.673,1.608-3.31,3.244-4.926,4.909c-0.59-0.562-1.199-1.142-1.77-1.722
		c-0.988,0.827-2.017,1.606-3.063,2.377c0.418,0.695,0.817,1.399,1.217,2.104c-2.034,1.197-4.09,2.329-6.105,3.557
		c-0.419-0.723-0.838-1.445-1.267-2.168c-1.16,0.542-2.349,1.008-3.527,1.521c0.209,0.761,0.418,1.54,0.607,2.321
		c-2.272,0.638-4.546,1.228-6.819,1.835c-0.2-0.771-0.399-1.541-0.59-2.312c-1.283,0.144-2.568,0.313-3.871,0.39
		c-0.048,0.818-0.066,1.646-0.066,2.474c-2.33-0.01-4.652-0.01-6.973,0.01c0-0.827,0-1.646-0.019-2.464
		c-1.293-0.124-2.587-0.294-3.899-0.39c-0.172,0.762-0.362,1.521-0.553,2.283c-2.282-0.581-4.546-1.219-6.829-1.798
		c0.209-0.799,0.418-1.589,0.627-2.378c-1.217-0.477-2.396-1.066-3.671-1.399c-0.343,0.696-0.723,1.371-1.142,2.036
		c-2.036-1.159-4.052-2.358-6.097-3.519c0.391-0.686,0.771-1.37,1.17-2.027c-0.038-0.094-0.104-0.257-0.152-0.351
		c-1.018-0.572-1.94-1.313-2.834-2.074c-0.57,0.552-1.122,1.123-1.673,1.713c-1.731-1.646-3.368-3.368-5.061-5.033
		c0.552-0.561,1.122-1.131,1.674-1.701c-0.352-0.485-0.723-0.979-1.084-1.476l-0.096,0.039c-0.361-0.542-0.723-1.085-1.084-1.627
		c-0.723,0.408-1.465,0.817-2.197,1.207c-1.132-2.054-2.349-4.052-3.472-6.115c2.625-1.645,5.488-2.835,8.275-4.166
		C24.998,60.659,30.942,57.959,36.831,55.162z"/>
</g>
</svg>
